<svg width="298" height="209" viewBox="0 0 298 209" fill="none" xmlns="http://www.w3.org/2000/svg">
<line x1="50.5" y1="-2.18557e-08" x2="50.5" y2="209" stroke="#D3D3D3"/>
<line x1="167.5" y1="-2.18557e-08" x2="167.5" y2="209" stroke="#D3D3D3"/>
<line x1="243.5" y1="-2.18557e-08" x2="243.5" y2="209" stroke="#D3D3D3"/>
<line x1="-4.37114e-08" y1="27.5" x2="298" y2="27.5" stroke="#D3D3D3"/>
<line x1="-4.37114e-08" y1="77.5" x2="298" y2="77.5" stroke="#D3D3D3"/>
<line x1="-4.37114e-08" y1="189.5" x2="298" y2="189.5" stroke="#D3D3D3"/>
<g filter="url(#filter0_d_104_43)">
<circle cx="50.5" cy="189.5" r="3.5" fill="#C1C1C1"/>
<circle cx="50.5" cy="189.5" r="3" stroke="white"/>
</g>
<g filter="url(#filter1_d_104_43)">
<circle cx="167.5" cy="189.5" r="3.5" fill="#C1C1C1"/>
<circle cx="167.5" cy="189.5" r="3" stroke="white"/>
</g>
<g filter="url(#filter2_d_104_43)">
<circle cx="243.5" cy="189.5" r="3.5" fill="#C1C1C1"/>
<circle cx="243.5" cy="189.5" r="3" stroke="white"/>
</g>
<g filter="url(#filter3_d_104_43)">
<circle cx="50.5" cy="77.5" r="3.5" fill="#C1C1C1"/>
<circle cx="50.5" cy="77.5" r="3" stroke="white"/>
</g>
<g filter="url(#filter4_d_104_43)">
<circle cx="167.5" cy="77.5" r="3.5" fill="#C1C1C1"/>
<circle cx="167.5" cy="77.5" r="3" stroke="white"/>
</g>
<g filter="url(#filter5_d_104_43)">
<circle cx="243.5" cy="77.5" r="3.5" fill="#C1C1C1"/>
<circle cx="243.5" cy="77.5" r="3" stroke="white"/>
</g>
<g filter="url(#filter6_d_104_43)">
<circle cx="50.5" cy="27.5" r="3.5" fill="#C1C1C1"/>
<circle cx="50.5" cy="27.5" r="3" stroke="white"/>
</g>
<g filter="url(#filter7_d_104_43)">
<circle cx="167.5" cy="27.5" r="3.5" fill="#C1C1C1"/>
<circle cx="167.5" cy="27.5" r="3" stroke="white"/>
</g>
<g filter="url(#filter8_d_104_43)">
<circle cx="243.5" cy="27.5" r="3.5" fill="#C1C1C1"/>
<circle cx="243.5" cy="27.5" r="3" stroke="white"/>
</g>
<rect x="57" y="85" width="103" height="97" rx="6" fill="white"/>
<rect x="174.25" y="85.25" width="63.5" height="96.5" rx="5.75" fill="white" stroke="#B4B4B4" stroke-width="0.5" stroke-dasharray="2 2"/>
<rect x="57.25" y="34.25" width="102.5" height="37.5" rx="5.75" fill="white" stroke="#B4B4B4" stroke-width="0.5" stroke-dasharray="2 2"/>
<rect x="174" y="34" width="64" height="38" rx="6" fill="#4051F0"/>
<path d="M184.692 61.9476C184.22 61.9651 183.828 61.9127 183.513 61.7905C183.199 61.6684 182.955 61.5025 182.78 61.2931C182.606 61.0836 182.475 60.8655 182.388 60.6385C182.318 60.3942 182.274 60.176 182.257 59.984C182.204 58.9716 182.161 58.0291 182.126 57.1564C182.091 56.2836 182.056 55.4371 182.021 54.6167C182.004 53.7789 181.995 52.9411 181.995 52.1033C182.012 51.248 182.039 50.3491 182.073 49.4065C182.126 48.464 182.196 47.4342 182.283 46.3171C182.283 46.3171 182.292 46.2473 182.309 46.1076C182.344 45.9505 182.414 45.7847 182.519 45.6102C182.623 45.4182 182.789 45.2524 183.016 45.1127C183.26 44.9731 183.609 44.9207 184.063 44.9556C184.465 44.9905 184.779 45.0953 185.006 45.2698C185.25 45.4444 185.425 45.6364 185.529 45.8458C185.634 46.0553 185.695 46.2473 185.713 46.4218C185.748 46.5789 185.765 46.6575 185.765 46.6575C185.66 48.8567 185.591 50.9687 185.556 52.9935C185.538 55.0182 185.582 56.9818 185.687 58.8844C186.524 58.7796 187.301 58.6836 188.017 58.5964C188.75 58.4916 189.457 58.3782 190.137 58.256C190.818 58.1338 191.508 58.0029 192.206 57.8633C192.206 57.8633 192.267 57.8633 192.389 57.8633C192.511 57.8458 192.668 57.8458 192.86 57.8633C193.07 57.8807 193.271 57.9244 193.463 57.9942C193.672 58.0465 193.864 58.1513 194.039 58.3084C194.213 58.448 194.327 58.64 194.379 58.8844C194.484 59.2509 194.501 59.5564 194.431 59.8007C194.379 60.0451 194.292 60.2458 194.169 60.4029C194.065 60.5425 193.96 60.6473 193.855 60.7171C193.751 60.7869 193.698 60.8218 193.698 60.8218C192.843 60.9789 192.04 61.1273 191.289 61.2669C190.539 61.4065 189.806 61.5287 189.09 61.6335C188.375 61.7382 187.659 61.8167 186.943 61.8691C186.228 61.9215 185.477 61.9476 184.692 61.9476ZM201.807 61.9738C200.882 61.9913 200.027 61.8429 199.241 61.5287C198.473 61.1971 197.793 60.7433 197.199 60.1673C196.623 59.5738 196.178 58.8931 195.864 58.1251C195.55 57.3571 195.393 56.5367 195.393 55.664C195.41 54.6865 195.585 53.7876 195.916 52.9673C196.265 52.1469 196.737 51.44 197.33 50.8465C197.941 50.2356 198.648 49.7644 199.451 49.4327C200.254 49.1011 201.109 48.9353 202.017 48.9353C203.396 48.9178 204.556 49.1447 205.499 49.616C206.441 50.0698 207.157 50.7855 207.646 51.7629C208.152 52.7229 208.405 53.9535 208.405 55.4545C208.405 56.3273 208.265 57.1564 207.986 57.9418C207.707 58.7098 207.288 59.3993 206.729 60.0102C206.188 60.6036 205.508 61.0749 204.687 61.424C203.867 61.7731 202.907 61.9564 201.807 61.9738ZM201.938 58.8058C202.374 58.8058 202.793 58.7098 203.195 58.5178C203.596 58.3258 203.954 58.064 204.268 57.7324C204.582 57.3833 204.827 56.9905 205.001 56.5542C205.193 56.1178 205.289 55.664 205.289 55.1927C205.289 54.3724 205.158 53.7091 204.897 53.2029C204.635 52.6793 204.277 52.2953 203.823 52.0509C203.387 51.7891 202.872 51.6582 202.278 51.6582C201.842 51.6582 201.432 51.7716 201.048 51.9985C200.664 52.2255 200.324 52.5222 200.027 52.8887C199.748 53.2553 199.521 53.6742 199.346 54.1455C199.189 54.5993 199.11 55.0705 199.11 55.5593C199.11 56.1876 199.224 56.7462 199.451 57.2349C199.678 57.7236 200.001 58.1076 200.42 58.3869C200.856 58.6662 201.362 58.8058 201.938 58.8058ZM208.274 62C207.89 62 207.576 61.9389 207.332 61.8167C207.087 61.6771 206.904 61.5462 206.782 61.424C206.677 61.3018 206.625 61.2407 206.625 61.2407C206.502 59.9665 206.398 58.7098 206.31 57.4705C206.241 56.2313 206.214 54.9658 206.232 53.6742C206.249 52.3651 206.319 51.0124 206.441 49.616C206.441 49.616 206.494 49.5549 206.598 49.4327C206.703 49.3105 206.878 49.1884 207.122 49.0662C207.366 48.944 207.698 48.9004 208.117 48.9353C208.536 48.9702 208.859 49.0924 209.086 49.3018C209.313 49.4938 209.461 49.712 209.531 49.9564C209.618 50.2007 209.67 50.4102 209.688 50.5847C209.705 50.7593 209.714 50.8465 209.714 50.8465C209.644 51.7367 209.583 52.5484 209.531 53.2815C209.496 54.0145 209.478 54.7476 209.478 55.4807C209.496 56.1964 209.522 56.9644 209.557 57.7847C209.592 58.6051 209.636 59.5564 209.688 60.6385C209.688 60.6385 209.679 60.7084 209.662 60.848C209.644 60.9702 209.592 61.1273 209.505 61.3193C209.417 61.4938 209.278 61.6509 209.086 61.7905C208.894 61.9302 208.623 62 208.274 62ZM213.675 62C213.273 62 212.942 61.9302 212.68 61.7905C212.436 61.6335 212.244 61.4502 212.104 61.2407C211.964 61.0313 211.86 60.848 211.79 60.6909C211.737 60.5338 211.711 60.4553 211.711 60.4553C211.641 59.7047 211.58 58.8669 211.528 57.9418C211.493 56.9993 211.467 56.0218 211.449 55.0095C211.449 53.9796 211.458 52.9498 211.476 51.92C211.493 50.8902 211.528 49.8865 211.58 48.9091C211.633 47.9142 211.694 46.9891 211.764 46.1338C211.764 46.1338 211.781 46.0727 211.816 45.9505C211.851 45.8284 211.929 45.6887 212.052 45.5316C212.174 45.3571 212.34 45.2175 212.549 45.1127C212.776 44.9905 213.081 44.9469 213.465 44.9818C213.867 45.0167 214.181 45.1215 214.408 45.296C214.652 45.4705 214.827 45.6625 214.932 45.872C215.036 46.064 215.106 46.2385 215.141 46.3956C215.176 46.5527 215.193 46.6313 215.193 46.6313C215.159 47.312 215.124 48.0975 215.089 48.9876C215.071 49.8778 215.054 50.8204 215.036 51.8153C215.019 52.8102 215.01 53.8313 215.01 54.8785C215.028 55.9084 215.045 56.9207 215.063 57.9156C215.08 58.8931 215.115 59.8095 215.167 60.6647C215.167 60.6647 215.15 60.7345 215.115 60.8742C215.097 61.0138 215.045 61.1709 214.958 61.3455C214.871 61.52 214.722 61.6771 214.513 61.8167C214.321 61.9389 214.041 62 213.675 62ZM223.08 61.9738C222.155 61.9913 221.3 61.8429 220.514 61.5287C219.746 61.1971 219.065 60.7433 218.472 60.1673C217.896 59.5738 217.451 58.8931 217.137 58.1251C216.822 57.3571 216.665 56.5367 216.665 55.664C216.683 54.6865 216.857 53.7876 217.189 52.9673C217.538 52.1469 218.009 51.44 218.603 50.8465C219.214 50.2356 219.921 49.7644 220.724 49.4327C221.526 49.1011 222.382 48.9353 223.289 48.9353C224.668 48.9178 225.829 49.1447 226.772 49.616C227.714 50.0698 228.43 50.7855 228.918 51.7629C229.425 52.7229 229.678 53.9535 229.678 55.4545C229.678 56.3273 229.538 57.1564 229.259 57.9418C228.98 58.7098 228.561 59.3993 228.002 60.0102C227.461 60.6036 226.78 61.0749 225.96 61.424C225.14 61.7731 224.18 61.9564 223.08 61.9738ZM223.211 58.8058C223.647 58.8058 224.066 58.7098 224.468 58.5178C224.869 58.3258 225.227 58.064 225.541 57.7324C225.855 57.3833 226.1 56.9905 226.274 56.5542C226.466 56.1178 226.562 55.664 226.562 55.1927C226.562 54.3724 226.431 53.7091 226.169 53.2029C225.908 52.6793 225.55 52.2953 225.096 52.0509C224.66 51.7891 224.145 51.6582 223.551 51.6582C223.115 51.6582 222.705 51.7716 222.321 51.9985C221.937 52.2255 221.596 52.5222 221.3 52.8887C221.02 53.2553 220.793 53.6742 220.619 54.1455C220.462 54.5993 220.383 55.0705 220.383 55.5593C220.383 56.1876 220.497 56.7462 220.724 57.2349C220.95 57.7236 221.273 58.1076 221.692 58.3869C222.129 58.6662 222.635 58.8058 223.211 58.8058ZM229.547 62C229.163 62 228.849 61.9389 228.604 61.8167C228.36 61.6771 228.177 61.5462 228.054 61.424C227.95 61.3018 227.897 61.2407 227.897 61.2407C227.775 59.9665 227.67 58.7098 227.583 57.4705C227.513 56.2313 227.487 54.9658 227.505 53.6742C227.522 52.3651 227.592 51.0124 227.714 49.616C227.714 49.616 227.766 49.5549 227.871 49.4327C227.976 49.3105 228.15 49.1884 228.395 49.0662C228.639 48.944 228.971 48.9004 229.39 48.9353C229.809 48.9702 230.132 49.0924 230.358 49.3018C230.585 49.4938 230.734 49.712 230.804 49.9564C230.891 50.2007 230.943 50.4102 230.961 50.5847C230.978 50.7593 230.987 50.8465 230.987 50.8465C230.917 51.7367 230.856 52.5484 230.804 53.2815C230.769 54.0145 230.751 54.7476 230.751 55.4807C230.769 56.1964 230.795 56.9644 230.83 57.7847C230.865 58.6051 230.908 59.5564 230.961 60.6385C230.961 60.6385 230.952 60.7084 230.934 60.848C230.917 60.9702 230.865 61.1273 230.777 61.3193C230.69 61.4938 230.55 61.6509 230.358 61.7905C230.166 61.9302 229.896 62 229.547 62Z" fill="white"/>
<defs>
<filter id="filter0_d_104_43" x="44" y="184" width="13" height="13" filterUnits="userSpaceOnUse" color-interpolation-filters="sRGB">
<feFlood flood-opacity="0" result="BackgroundImageFix"/>
<feColorMatrix in="SourceAlpha" type="matrix" values="0 0 0 0 0 0 0 0 0 0 0 0 0 0 0 0 0 0 127 0" result="hardAlpha"/>
<feOffset dy="1"/>
<feGaussianBlur stdDeviation="1.5"/>
<feComposite in2="hardAlpha" operator="out"/>
<feColorMatrix type="matrix" values="0 0 0 0 0 0 0 0 0 0 0 0 0 0 0 0 0 0 0.25 0"/>
<feBlend mode="normal" in2="BackgroundImageFix" result="effect1_dropShadow_104_43"/>
<feBlend mode="normal" in="SourceGraphic" in2="effect1_dropShadow_104_43" result="shape"/>
</filter>
<filter id="filter1_d_104_43" x="161" y="184" width="13" height="13" filterUnits="userSpaceOnUse" color-interpolation-filters="sRGB">
<feFlood flood-opacity="0" result="BackgroundImageFix"/>
<feColorMatrix in="SourceAlpha" type="matrix" values="0 0 0 0 0 0 0 0 0 0 0 0 0 0 0 0 0 0 127 0" result="hardAlpha"/>
<feOffset dy="1"/>
<feGaussianBlur stdDeviation="1.5"/>
<feComposite in2="hardAlpha" operator="out"/>
<feColorMatrix type="matrix" values="0 0 0 0 0 0 0 0 0 0 0 0 0 0 0 0 0 0 0.25 0"/>
<feBlend mode="normal" in2="BackgroundImageFix" result="effect1_dropShadow_104_43"/>
<feBlend mode="normal" in="SourceGraphic" in2="effect1_dropShadow_104_43" result="shape"/>
</filter>
<filter id="filter2_d_104_43" x="237" y="184" width="13" height="13" filterUnits="userSpaceOnUse" color-interpolation-filters="sRGB">
<feFlood flood-opacity="0" result="BackgroundImageFix"/>
<feColorMatrix in="SourceAlpha" type="matrix" values="0 0 0 0 0 0 0 0 0 0 0 0 0 0 0 0 0 0 127 0" result="hardAlpha"/>
<feOffset dy="1"/>
<feGaussianBlur stdDeviation="1.5"/>
<feComposite in2="hardAlpha" operator="out"/>
<feColorMatrix type="matrix" values="0 0 0 0 0 0 0 0 0 0 0 0 0 0 0 0 0 0 0.25 0"/>
<feBlend mode="normal" in2="BackgroundImageFix" result="effect1_dropShadow_104_43"/>
<feBlend mode="normal" in="SourceGraphic" in2="effect1_dropShadow_104_43" result="shape"/>
</filter>
<filter id="filter3_d_104_43" x="44" y="72" width="13" height="13" filterUnits="userSpaceOnUse" color-interpolation-filters="sRGB">
<feFlood flood-opacity="0" result="BackgroundImageFix"/>
<feColorMatrix in="SourceAlpha" type="matrix" values="0 0 0 0 0 0 0 0 0 0 0 0 0 0 0 0 0 0 127 0" result="hardAlpha"/>
<feOffset dy="1"/>
<feGaussianBlur stdDeviation="1.5"/>
<feComposite in2="hardAlpha" operator="out"/>
<feColorMatrix type="matrix" values="0 0 0 0 0 0 0 0 0 0 0 0 0 0 0 0 0 0 0.25 0"/>
<feBlend mode="normal" in2="BackgroundImageFix" result="effect1_dropShadow_104_43"/>
<feBlend mode="normal" in="SourceGraphic" in2="effect1_dropShadow_104_43" result="shape"/>
</filter>
<filter id="filter4_d_104_43" x="161" y="72" width="13" height="13" filterUnits="userSpaceOnUse" color-interpolation-filters="sRGB">
<feFlood flood-opacity="0" result="BackgroundImageFix"/>
<feColorMatrix in="SourceAlpha" type="matrix" values="0 0 0 0 0 0 0 0 0 0 0 0 0 0 0 0 0 0 127 0" result="hardAlpha"/>
<feOffset dy="1"/>
<feGaussianBlur stdDeviation="1.5"/>
<feComposite in2="hardAlpha" operator="out"/>
<feColorMatrix type="matrix" values="0 0 0 0 0 0 0 0 0 0 0 0 0 0 0 0 0 0 0.25 0"/>
<feBlend mode="normal" in2="BackgroundImageFix" result="effect1_dropShadow_104_43"/>
<feBlend mode="normal" in="SourceGraphic" in2="effect1_dropShadow_104_43" result="shape"/>
</filter>
<filter id="filter5_d_104_43" x="237" y="72" width="13" height="13" filterUnits="userSpaceOnUse" color-interpolation-filters="sRGB">
<feFlood flood-opacity="0" result="BackgroundImageFix"/>
<feColorMatrix in="SourceAlpha" type="matrix" values="0 0 0 0 0 0 0 0 0 0 0 0 0 0 0 0 0 0 127 0" result="hardAlpha"/>
<feOffset dy="1"/>
<feGaussianBlur stdDeviation="1.5"/>
<feComposite in2="hardAlpha" operator="out"/>
<feColorMatrix type="matrix" values="0 0 0 0 0 0 0 0 0 0 0 0 0 0 0 0 0 0 0.25 0"/>
<feBlend mode="normal" in2="BackgroundImageFix" result="effect1_dropShadow_104_43"/>
<feBlend mode="normal" in="SourceGraphic" in2="effect1_dropShadow_104_43" result="shape"/>
</filter>
<filter id="filter6_d_104_43" x="44" y="22" width="13" height="13" filterUnits="userSpaceOnUse" color-interpolation-filters="sRGB">
<feFlood flood-opacity="0" result="BackgroundImageFix"/>
<feColorMatrix in="SourceAlpha" type="matrix" values="0 0 0 0 0 0 0 0 0 0 0 0 0 0 0 0 0 0 127 0" result="hardAlpha"/>
<feOffset dy="1"/>
<feGaussianBlur stdDeviation="1.5"/>
<feComposite in2="hardAlpha" operator="out"/>
<feColorMatrix type="matrix" values="0 0 0 0 0 0 0 0 0 0 0 0 0 0 0 0 0 0 0.25 0"/>
<feBlend mode="normal" in2="BackgroundImageFix" result="effect1_dropShadow_104_43"/>
<feBlend mode="normal" in="SourceGraphic" in2="effect1_dropShadow_104_43" result="shape"/>
</filter>
<filter id="filter7_d_104_43" x="161" y="22" width="13" height="13" filterUnits="userSpaceOnUse" color-interpolation-filters="sRGB">
<feFlood flood-opacity="0" result="BackgroundImageFix"/>
<feColorMatrix in="SourceAlpha" type="matrix" values="0 0 0 0 0 0 0 0 0 0 0 0 0 0 0 0 0 0 127 0" result="hardAlpha"/>
<feOffset dy="1"/>
<feGaussianBlur stdDeviation="1.5"/>
<feComposite in2="hardAlpha" operator="out"/>
<feColorMatrix type="matrix" values="0 0 0 0 0 0 0 0 0 0 0 0 0 0 0 0 0 0 0.25 0"/>
<feBlend mode="normal" in2="BackgroundImageFix" result="effect1_dropShadow_104_43"/>
<feBlend mode="normal" in="SourceGraphic" in2="effect1_dropShadow_104_43" result="shape"/>
</filter>
<filter id="filter8_d_104_43" x="237" y="22" width="13" height="13" filterUnits="userSpaceOnUse" color-interpolation-filters="sRGB">
<feFlood flood-opacity="0" result="BackgroundImageFix"/>
<feColorMatrix in="SourceAlpha" type="matrix" values="0 0 0 0 0 0 0 0 0 0 0 0 0 0 0 0 0 0 127 0" result="hardAlpha"/>
<feOffset dy="1"/>
<feGaussianBlur stdDeviation="1.5"/>
<feComposite in2="hardAlpha" operator="out"/>
<feColorMatrix type="matrix" values="0 0 0 0 0 0 0 0 0 0 0 0 0 0 0 0 0 0 0.25 0"/>
<feBlend mode="normal" in2="BackgroundImageFix" result="effect1_dropShadow_104_43"/>
<feBlend mode="normal" in="SourceGraphic" in2="effect1_dropShadow_104_43" result="shape"/>
</filter>
</defs>
</svg>
