<svg width="279" height="48" viewBox="0 0 279 48" fill="none" xmlns="http://www.w3.org/2000/svg">
<rect width="48" height="48" rx="10" fill="url(#paint0_linear_103_10)"/>
<g filter="url(#filter0_d_103_10)">
<path d="M12 11V25.8447C12 32.3457 17.2701 37.6158 23.7711 37.6158H40.3161" stroke="url(#paint1_linear_103_10)" stroke-width="7" stroke-linecap="round" shape-rendering="crispEdges"/>
</g>
<path d="M67.5736 37.9209C66.8621 37.9473 66.2692 37.8682 65.7948 37.6838C65.3205 37.4993 64.9515 37.2489 64.688 36.9327C64.4245 36.6165 64.2268 36.2871 64.0951 35.9445C63.9896 35.5755 63.9238 35.2461 63.8974 34.9562C63.8184 33.4278 63.7525 32.0047 63.6998 30.6871C63.6471 29.3694 63.5944 28.0913 63.5416 26.8527C63.5153 25.5878 63.5021 24.3228 63.5021 23.0579C63.5285 21.7666 63.568 20.4094 63.6207 18.9864C63.6998 17.5633 63.8052 16.0085 63.9369 14.3219C63.9369 14.3219 63.9501 14.2165 63.9765 14.0056C64.0292 13.7685 64.1346 13.5181 64.2927 13.2546C64.4508 12.9647 64.7012 12.7144 65.0438 12.5035C65.4127 12.2927 65.9398 12.2136 66.6249 12.2664C67.2311 12.3191 67.7054 12.4772 68.048 12.7407C68.4169 13.0042 68.6805 13.2941 68.8386 13.6104C68.9967 13.9266 69.0889 14.2165 69.1153 14.48C69.168 14.7172 69.1944 14.8358 69.1944 14.8358C69.0362 18.1562 68.9308 21.3449 68.8781 24.4019C68.8518 27.4588 68.9176 30.4235 69.0758 33.296C70.3407 33.1379 71.5134 32.9929 72.5939 32.8612C73.7007 32.7031 74.768 32.5318 75.7958 32.3473C76.8235 32.1628 77.8645 31.9652 78.9186 31.7544C78.9186 31.7544 79.0108 31.7544 79.1953 31.7544C79.3798 31.728 79.6169 31.728 79.9068 31.7544C80.2231 31.7807 80.5261 31.8466 80.816 31.952C81.1322 32.0311 81.4221 32.1892 81.6856 32.4264C81.9492 32.6372 82.1205 32.9271 82.1995 33.296C82.3576 33.8494 82.384 34.3106 82.2786 34.6795C82.1995 35.0485 82.0678 35.3515 81.8833 35.5887C81.7252 35.7995 81.5671 35.9576 81.4089 36.0631C81.2508 36.1685 81.1718 36.2212 81.1718 36.2212C79.8805 36.4584 78.6682 36.6824 77.5351 36.8932C76.4019 37.104 75.2951 37.2885 74.2146 37.4466C73.1341 37.6047 72.0536 37.7233 70.9732 37.8024C69.8927 37.8814 68.7595 37.9209 67.5736 37.9209ZM93.4148 37.9605C92.0181 37.9868 90.7268 37.7628 89.5409 37.2885C88.3814 36.7878 87.3536 36.1026 86.4576 35.2329C85.5879 34.3369 84.9159 33.3092 84.4416 32.1496C83.9672 30.9901 83.7301 29.7515 83.7301 28.4339C83.7564 26.9581 84.0199 25.6009 84.5206 24.3624C85.0477 23.1238 85.7592 22.0565 86.6552 21.1605C87.5776 20.2381 88.6449 19.5266 89.8571 19.0259C91.0694 18.5252 92.3606 18.2748 93.731 18.2748C95.8129 18.2485 97.5654 18.5911 98.9884 19.3026C100.411 19.9878 101.492 21.0682 102.23 22.544C102.994 23.9934 103.376 25.8513 103.376 28.1176C103.376 29.4353 103.165 30.6871 102.744 31.8729C102.322 33.0325 101.69 34.0734 100.846 34.9958C100.029 35.8918 99.0016 36.6033 97.763 37.1304C96.5244 37.6574 95.075 37.9341 93.4148 37.9605ZM93.6124 33.1774C94.2712 33.1774 94.9037 33.0325 95.5098 32.7426C96.1159 32.4527 96.6562 32.0574 97.1305 31.5567C97.6049 31.0296 97.9738 30.4367 98.2374 29.7779C98.5272 29.1191 98.6722 28.4339 98.6722 27.7224C98.6722 26.4838 98.4745 25.4824 98.0792 24.7181C97.6839 23.9275 97.1437 23.3478 96.4585 22.9788C95.7997 22.5835 95.0223 22.3859 94.1263 22.3859C93.4675 22.3859 92.8482 22.5572 92.2684 22.8998C91.6886 23.2424 91.1748 23.6904 90.7268 24.2438C90.3051 24.7972 89.9625 25.4296 89.699 26.1412C89.4618 26.8264 89.3432 27.5379 89.3432 28.2758C89.3432 29.2245 89.5145 30.0678 89.8571 30.8056C90.1997 31.5435 90.6872 32.1233 91.3197 32.5449C91.9785 32.9666 92.7428 33.1774 93.6124 33.1774ZM103.179 38C102.599 38 102.124 37.9078 101.755 37.7233C101.387 37.5125 101.11 37.3148 100.925 37.1304C100.767 36.9459 100.688 36.8536 100.688 36.8536C100.504 34.9299 100.346 33.0325 100.214 31.1614C100.108 29.2904 100.069 27.3798 100.095 25.4296C100.122 23.4532 100.227 21.4108 100.411 19.3026C100.411 19.3026 100.491 19.2104 100.649 19.0259C100.807 18.8414 101.07 18.6569 101.439 18.4725C101.808 18.288 102.309 18.2221 102.941 18.2748C103.574 18.3275 104.061 18.512 104.404 18.8282C104.747 19.1181 104.971 19.4475 105.076 19.8165C105.208 20.1854 105.287 20.5016 105.313 20.7652C105.339 21.0287 105.353 21.1605 105.353 21.1605C105.247 22.5045 105.155 23.7299 105.076 24.8367C105.023 25.9435 104.997 27.0504 104.997 28.1572C105.023 29.2376 105.063 30.3972 105.115 31.6358C105.168 32.8744 105.234 34.3106 105.313 35.9445C105.313 35.9445 105.3 36.0499 105.274 36.2607C105.247 36.4452 105.168 36.6824 105.036 36.9722C104.905 37.2358 104.694 37.4729 104.404 37.6838C104.114 37.8946 103.706 38 103.179 38ZM111.333 38C110.727 38 110.226 37.8946 109.831 37.6838C109.462 37.4466 109.172 37.1699 108.961 36.8536C108.75 36.5374 108.592 36.2607 108.487 36.0235C108.408 35.7864 108.368 35.6678 108.368 35.6678C108.263 34.5346 108.17 33.2696 108.091 31.8729C108.039 30.4499 107.999 28.9741 107.973 27.4456C107.973 25.8908 107.986 24.336 108.012 22.7812C108.039 21.2264 108.091 19.7111 108.17 18.2353C108.249 16.7332 108.342 15.3365 108.447 14.0452C108.447 14.0452 108.473 13.9529 108.526 13.7685C108.579 13.584 108.697 13.3732 108.882 13.136C109.066 12.8725 109.317 12.6616 109.633 12.5035C109.976 12.3191 110.437 12.2532 111.016 12.3059C111.623 12.3586 112.097 12.5167 112.44 12.7802C112.808 13.0438 113.072 13.3336 113.23 13.6499C113.388 13.9398 113.494 14.2033 113.546 14.4405C113.599 14.6776 113.625 14.7962 113.625 14.7962C113.573 15.824 113.52 17.0099 113.467 18.3539C113.441 19.6979 113.415 21.1209 113.388 22.6231C113.362 24.1252 113.349 25.6668 113.349 27.248C113.375 28.8028 113.401 30.3313 113.428 31.8334C113.454 33.3092 113.507 34.6927 113.586 35.984C113.586 35.984 113.56 36.0894 113.507 36.3002C113.48 36.5111 113.401 36.7482 113.27 37.0118C113.138 37.2753 112.914 37.5125 112.598 37.7233C112.308 37.9078 111.886 38 111.333 38ZM125.532 37.9605C124.136 37.9868 122.844 37.7628 121.659 37.2885C120.499 36.7878 119.471 36.1026 118.575 35.2329C117.706 34.3369 117.034 33.3092 116.559 32.1496C116.085 30.9901 115.848 29.7515 115.848 28.4339C115.874 26.9581 116.138 25.6009 116.638 24.3624C117.165 23.1238 117.877 22.0565 118.773 21.1605C119.695 20.2381 120.763 19.5266 121.975 19.0259C123.187 18.5252 124.478 18.2748 125.849 18.2748C127.931 18.2485 129.683 18.5911 131.106 19.3026C132.529 19.9878 133.61 21.0682 134.347 22.544C135.112 23.9934 135.494 25.8513 135.494 28.1176C135.494 29.4353 135.283 30.6871 134.861 31.8729C134.44 33.0325 133.807 34.0734 132.964 34.9958C132.147 35.8918 131.119 36.6033 129.881 37.1304C128.642 37.6574 127.193 37.9341 125.532 37.9605ZM125.73 33.1774C126.389 33.1774 127.021 33.0325 127.627 32.7426C128.234 32.4527 128.774 32.0574 129.248 31.5567C129.723 31.0296 130.091 30.4367 130.355 29.7779C130.645 29.1191 130.79 28.4339 130.79 27.7224C130.79 26.4838 130.592 25.4824 130.197 24.7181C129.802 23.9275 129.261 23.3478 128.576 22.9788C127.917 22.5835 127.14 22.3859 126.244 22.3859C125.585 22.3859 124.966 22.5572 124.386 22.8998C123.806 23.2424 123.292 23.6904 122.844 24.2438C122.423 24.7972 122.08 25.4296 121.817 26.1412C121.579 26.8264 121.461 27.5379 121.461 28.2758C121.461 29.2245 121.632 30.0678 121.975 30.8056C122.317 31.5435 122.805 32.1233 123.437 32.5449C124.096 32.9666 124.86 33.1774 125.73 33.1774ZM135.296 38C134.716 38 134.242 37.9078 133.873 37.7233C133.504 37.5125 133.227 37.3148 133.043 37.1304C132.885 36.9459 132.806 36.8536 132.806 36.8536C132.621 34.9299 132.463 33.0325 132.331 31.1614C132.226 29.2904 132.187 27.3798 132.213 25.4296C132.239 23.4532 132.345 21.4108 132.529 19.3026C132.529 19.3026 132.608 19.2104 132.766 19.0259C132.924 18.8414 133.188 18.6569 133.557 18.4725C133.926 18.288 134.427 18.2221 135.059 18.2748C135.691 18.3275 136.179 18.512 136.522 18.8282C136.864 19.1181 137.088 19.4475 137.194 19.8165C137.325 20.1854 137.404 20.5016 137.431 20.7652C137.457 21.0287 137.47 21.1605 137.47 21.1605C137.365 22.5045 137.273 23.7299 137.194 24.8367C137.141 25.9435 137.115 27.0504 137.115 28.1572C137.141 29.2376 137.18 30.3972 137.233 31.6358C137.286 32.8744 137.352 34.3106 137.431 35.9445C137.431 35.9445 137.418 36.0499 137.391 36.2607C137.365 36.4452 137.286 36.6824 137.154 36.9722C137.022 37.2358 136.811 37.4729 136.522 37.6838C136.232 37.8946 135.823 38 135.296 38ZM154.816 37.9209C154.105 37.9473 153.512 37.8682 153.037 37.6838C152.563 37.4993 152.194 37.2489 151.931 36.9327C151.667 36.6165 151.469 36.2871 151.338 35.9445C151.232 35.5755 151.166 35.2461 151.14 34.9562C151.061 33.4278 150.995 32.0047 150.942 30.6871C150.89 29.3694 150.837 28.0913 150.784 26.8527C150.758 25.5878 150.745 24.3228 150.745 23.0579C150.771 21.7666 150.811 20.4094 150.863 18.9864C150.942 17.5633 151.048 16.0085 151.18 14.3219C151.18 14.3219 151.193 14.2165 151.219 14.0056C151.272 13.7685 151.377 13.5181 151.535 13.2546C151.693 12.9647 151.944 12.7144 152.286 12.5035C152.655 12.2927 153.182 12.2136 153.868 12.2664C154.474 12.3191 154.948 12.4772 155.291 12.7407C155.66 13.0042 155.923 13.2941 156.081 13.6104C156.239 13.9266 156.332 14.2165 156.358 14.48C156.411 14.7172 156.437 14.8358 156.437 14.8358C156.279 18.1562 156.173 21.3449 156.121 24.4019C156.094 27.4588 156.16 30.4235 156.318 33.296C157.583 33.1379 158.756 32.9929 159.837 32.8612C160.943 32.7031 162.011 32.5318 163.038 32.3473C164.066 32.1628 165.107 31.9652 166.161 31.7544C166.161 31.7544 166.253 31.7544 166.438 31.7544C166.622 31.728 166.86 31.728 167.149 31.7544C167.466 31.7807 167.769 31.8466 168.059 31.952C168.375 32.0311 168.665 32.1892 168.928 32.4264C169.192 32.6372 169.363 32.9271 169.442 33.296C169.6 33.8494 169.627 34.3106 169.521 34.6795C169.442 35.0485 169.31 35.3515 169.126 35.5887C168.968 35.7995 168.81 35.9576 168.652 36.0631C168.493 36.1685 168.414 36.2212 168.414 36.2212C167.123 36.4584 165.911 36.6824 164.778 36.8932C163.645 37.104 162.538 37.2885 161.457 37.4466C160.377 37.6047 159.296 37.7233 158.216 37.8024C157.135 37.8814 156.002 37.9209 154.816 37.9209ZM180.657 37.9605C179.261 37.9868 177.969 37.7628 176.784 37.2885C175.624 36.7878 174.596 36.1026 173.7 35.2329C172.831 34.3369 172.159 33.3092 171.684 32.1496C171.21 30.9901 170.973 29.7515 170.973 28.4339C170.999 26.9581 171.263 25.6009 171.763 24.3624C172.29 23.1238 173.002 22.0565 173.898 21.1605C174.82 20.2381 175.888 19.5266 177.1 19.0259C178.312 18.5252 179.603 18.2748 180.974 18.2748C183.056 18.2485 184.808 18.5911 186.231 19.3026C187.654 19.9878 188.735 21.0682 189.472 22.544C190.237 23.9934 190.619 25.8513 190.619 28.1176C190.619 29.4353 190.408 30.6871 189.986 31.8729C189.565 33.0325 188.932 34.0734 188.089 34.9958C187.272 35.8918 186.244 36.6033 185.006 37.1304C183.767 37.6574 182.318 37.9341 180.657 37.9605ZM180.855 33.1774C181.514 33.1774 182.146 33.0325 182.752 32.7426C183.359 32.4527 183.899 32.0574 184.373 31.5567C184.848 31.0296 185.216 30.4367 185.48 29.7779C185.77 29.1191 185.915 28.4339 185.915 27.7224C185.915 26.4838 185.717 25.4824 185.322 24.7181C184.927 23.9275 184.386 23.3478 183.701 22.9788C183.042 22.5835 182.265 22.3859 181.369 22.3859C180.71 22.3859 180.091 22.5572 179.511 22.8998C178.931 23.2424 178.417 23.6904 177.969 24.2438C177.548 24.7972 177.205 25.4296 176.942 26.1412C176.704 26.8264 176.586 27.5379 176.586 28.2758C176.586 29.2245 176.757 30.0678 177.1 30.8056C177.442 31.5435 177.93 32.1233 178.562 32.5449C179.221 32.9666 179.985 33.1774 180.855 33.1774ZM190.421 38C189.841 38 189.367 37.9078 188.998 37.7233C188.629 37.5125 188.352 37.3148 188.168 37.1304C188.01 36.9459 187.931 36.8536 187.931 36.8536C187.746 34.9299 187.588 33.0325 187.456 31.1614C187.351 29.2904 187.312 27.3798 187.338 25.4296C187.364 23.4532 187.47 21.4108 187.654 19.3026C187.654 19.3026 187.733 19.2104 187.891 19.0259C188.049 18.8414 188.313 18.6569 188.682 18.4725C189.051 18.288 189.552 18.2221 190.184 18.2748C190.816 18.3275 191.304 18.512 191.647 18.8282C191.989 19.1181 192.213 19.4475 192.319 19.8165C192.45 20.1854 192.529 20.5016 192.556 20.7652C192.582 21.0287 192.595 21.1605 192.595 21.1605C192.49 22.5045 192.398 23.7299 192.319 24.8367C192.266 25.9435 192.24 27.0504 192.24 28.1572C192.266 29.2376 192.305 30.3972 192.358 31.6358C192.411 32.8744 192.477 34.3106 192.556 35.9445C192.556 35.9445 192.543 36.0499 192.516 36.2607C192.49 36.4452 192.411 36.6824 192.279 36.9722C192.147 37.2358 191.936 37.4729 191.647 37.6838C191.357 37.8946 190.948 38 190.421 38ZM207.321 46.3802C205.476 46.4856 203.737 46.3671 202.103 46.0245C200.469 45.7082 198.94 45.2075 197.517 44.5224C197.517 44.5224 197.412 44.4565 197.201 44.3247C196.99 44.2193 196.766 44.048 196.529 43.8108C196.292 43.5736 196.107 43.2838 195.976 42.9412C195.844 42.5986 195.857 42.2033 196.015 41.7553C196.173 41.3073 196.397 40.9779 196.687 40.7671C196.977 40.5826 197.28 40.4772 197.596 40.4508C197.913 40.4245 198.176 40.4245 198.387 40.4508C198.598 40.4772 198.703 40.4904 198.703 40.4904C199.626 40.8066 200.456 41.0569 201.194 41.2414C201.958 41.4522 202.696 41.5972 203.407 41.6762C204.145 41.7553 204.909 41.7948 205.7 41.7948C206.939 41.7421 207.927 41.5181 208.665 41.1228C209.403 40.7539 209.943 40.1873 210.285 39.4231C210.654 38.6852 210.852 37.7628 210.878 36.656C210.984 34.864 211.036 33.2433 211.036 31.7939C211.036 30.3445 210.997 28.9873 210.918 27.7224C210.839 26.4311 210.733 25.1529 210.602 23.888C210.47 22.6231 210.299 21.2922 210.088 19.8955C210.088 19.8955 210.127 19.7769 210.206 19.5398C210.312 19.3026 210.523 19.0786 210.839 18.8678C211.181 18.6306 211.669 18.512 212.301 18.512C212.96 18.4856 213.5 18.6174 213.922 18.9073C214.344 19.1972 214.66 19.4871 214.871 19.7769C215.108 20.0405 215.227 20.1722 215.227 20.1722C215.701 22.1224 216.03 24.0593 216.215 25.9831C216.399 27.9068 216.491 29.8965 216.491 31.952C216.518 34.0075 216.465 36.2212 216.333 38.5929C216.043 41.0701 215.161 42.9544 213.685 44.2456C212.235 45.5369 210.114 46.2485 207.321 46.3802ZM201.866 37.5256C200.759 37.0249 199.744 36.3925 198.822 35.6282C197.926 34.864 197.162 33.9812 196.529 32.9798C195.923 31.952 195.501 30.8452 195.264 29.6593C195.08 28.6579 194.961 27.7092 194.908 26.8132C194.856 25.9172 194.869 24.9948 194.948 24.0461C195.027 23.0974 195.159 22.0565 195.343 20.9233C195.343 20.9233 195.37 20.8179 195.422 20.6071C195.501 20.3962 195.633 20.1591 195.818 19.8955C196.002 19.6056 196.266 19.3685 196.608 19.184C196.977 18.9732 197.451 18.8941 198.031 18.9468C198.664 18.9995 199.164 19.1445 199.533 19.3816C199.929 19.5925 200.219 19.8692 200.403 20.2118C200.587 20.528 200.706 20.8442 200.759 21.1605C200.838 21.4504 200.864 21.7007 200.838 21.9115C200.838 22.096 200.838 22.1882 200.838 22.1882C200.627 23.8485 200.535 25.2979 200.561 26.5365C200.587 27.7751 200.719 28.816 200.956 29.6593C201.194 30.4762 201.47 31.0955 201.787 31.5172C202.419 32.3868 203.21 32.9139 204.158 33.0984C205.107 33.2565 206.24 33.0852 207.558 32.5845C208.138 32.2946 208.678 31.8861 209.179 31.3591C209.679 30.8056 210.088 30.1336 210.404 29.3431C210.747 28.5525 210.905 27.6828 210.878 26.7341L214.91 25.1529C215.279 27.2875 215.266 29.1586 214.871 30.7661C214.475 32.3736 213.777 33.7572 212.776 34.9167C212.011 35.76 211.063 36.4847 209.93 37.0908C208.796 37.6706 207.531 38.0132 206.135 38.1186C204.764 38.2504 203.341 38.0527 201.866 37.5256ZM228.143 37.9605C226.72 37.9605 225.402 37.7101 224.19 37.2094C222.978 36.7087 221.923 36.0235 221.027 35.1539C220.158 34.2842 219.486 33.2696 219.011 32.1101C218.537 30.9506 218.3 29.7252 218.3 28.4339C218.3 27.1162 218.55 25.8513 219.051 24.6391C219.552 23.4005 220.25 22.3068 221.146 21.3581C222.068 20.3831 223.136 19.6188 224.348 19.0654C225.56 18.512 226.891 18.2353 228.34 18.2353C229.79 18.2353 231.134 18.4329 232.372 18.8282C233.611 19.2235 234.705 19.8296 235.653 20.6466C236.602 21.4635 237.34 22.4913 237.867 23.7299C238.394 24.9685 238.658 26.4311 238.658 28.1176C238.658 29.4353 238.381 30.6871 237.827 31.8729C237.274 33.0588 236.51 34.1129 235.535 35.0353C234.586 35.9313 233.479 36.6428 232.214 37.1699C230.949 37.6969 229.592 37.9605 228.143 37.9605ZM228.064 33.2169C228.749 33.2169 229.394 33.0852 230.001 32.8216C230.607 32.5318 231.147 32.1365 231.621 31.6358C232.096 31.1351 232.478 30.5685 232.768 29.936C233.058 29.2772 233.202 28.592 233.202 27.8805C233.202 26.6682 232.992 25.68 232.57 24.9158C232.175 24.1252 231.634 23.5454 230.949 23.1765C230.264 22.8075 229.474 22.6231 228.578 22.6231C227.919 22.6231 227.286 22.7944 226.68 23.1369C226.1 23.4532 225.586 23.888 225.138 24.4414C224.717 24.9948 224.374 25.6141 224.111 26.2993C223.874 26.9845 223.755 27.6828 223.755 28.3944C223.755 29.3431 223.926 30.1864 224.269 30.9242C224.638 31.6358 225.138 32.2024 225.771 32.624C226.43 33.0193 227.194 33.2169 228.064 33.2169ZM247.535 37.6442C246.902 37.4334 246.243 37.1172 245.558 36.6955C244.899 36.2739 244.267 35.7468 243.661 35.1144C243.055 34.4819 242.501 33.7045 242.001 32.7821C241.5 31.8598 241.091 30.7661 240.775 29.5012C240.512 28.1572 240.38 26.8132 240.38 25.4692C240.406 24.0988 240.551 22.5572 240.815 20.8442C240.815 20.8442 240.841 20.7125 240.894 20.4489C240.973 20.1854 241.105 19.9087 241.289 19.6188C241.5 19.3026 241.816 19.0654 242.238 18.9073C242.686 18.7228 243.279 18.7228 244.017 18.9073C244.649 19.0654 245.11 19.3289 245.4 19.6979C245.716 20.0405 245.927 20.3962 246.033 20.7652C246.138 21.1078 246.191 21.424 246.191 21.7139C246.191 21.9774 246.191 22.1092 246.191 22.1092C245.927 23.9539 245.822 25.7064 245.874 27.3666C245.954 29.0005 246.257 30.3049 246.784 31.28C247.126 31.8598 247.522 32.3209 247.97 32.6635C248.444 32.9798 248.931 33.1774 249.432 33.2565C249.959 33.3355 250.46 33.3224 250.934 33.2169C251.435 33.1115 251.883 32.9271 252.278 32.6635C252.779 32.2682 253.174 31.6753 253.464 30.8847C253.754 30.0941 253.938 29.2508 254.018 28.3548C254.097 27.4325 254.07 26.5892 253.938 25.8249C253.833 25.0871 253.701 24.3755 253.543 23.6904C253.411 23.0052 253.28 22.3859 253.148 21.8325C253.042 21.2527 252.963 20.7784 252.911 20.4094C252.911 20.4094 252.911 20.3304 252.911 20.1722C252.937 19.9878 253.016 19.7769 253.148 19.5398C253.28 19.2762 253.49 19.0391 253.78 18.8282C254.07 18.6174 254.505 18.4988 255.085 18.4725C255.638 18.3934 256.126 18.4725 256.547 18.7096C256.995 18.9468 257.338 19.1972 257.575 19.4607C257.839 19.6979 257.97 19.8165 257.97 19.8165C258.366 20.4226 258.774 21.2264 259.196 22.2278C259.618 23.2292 259.934 24.3228 260.145 25.5087C260.355 26.9318 260.408 28.1835 260.303 29.264C260.224 30.3445 260.013 31.3195 259.67 32.1892C259.354 33.0588 258.919 33.9153 258.366 34.7586C257.786 35.4438 257.088 36.0499 256.271 36.5769C255.454 37.0776 254.558 37.4598 253.583 37.7233C252.608 37.9868 251.606 38.1186 250.578 38.1186C249.551 38.1186 248.536 37.9605 247.535 37.6442ZM269.524 38C268.944 38 268.457 37.8946 268.061 37.6838C267.692 37.4466 267.402 37.1699 267.192 36.8536C266.981 36.5374 266.823 36.2607 266.717 36.0235C266.638 35.7864 266.599 35.6678 266.599 35.6678C266.493 34.5346 266.401 33.2696 266.322 31.8729C266.269 30.4499 266.23 28.9741 266.203 27.4456C266.177 25.8908 266.177 24.336 266.203 22.7812C266.256 21.2264 266.322 19.7111 266.401 18.2353C266.48 16.7332 266.572 15.3365 266.678 14.0452C266.678 14.0452 266.704 13.9529 266.757 13.7685C266.81 13.584 266.915 13.3732 267.073 13.136C267.258 12.8725 267.521 12.6616 267.864 12.5035C268.206 12.3191 268.654 12.2532 269.208 12.3059C269.84 12.3586 270.328 12.5167 270.67 12.7802C271.013 13.0438 271.263 13.3336 271.421 13.6499C271.606 13.9398 271.724 14.2033 271.777 14.4405C271.83 14.6776 271.856 14.7962 271.856 14.7962C271.803 15.824 271.751 17.0099 271.698 18.3539C271.645 19.6979 271.606 21.1209 271.579 22.6231C271.553 24.1252 271.54 25.6668 271.54 27.248C271.566 28.8028 271.593 30.3313 271.619 31.8334C271.672 33.3092 271.738 34.6927 271.817 35.984C271.817 35.984 271.79 36.0894 271.738 36.3002C271.711 36.5111 271.619 36.7482 271.461 37.0118C271.329 37.2753 271.105 37.5125 270.789 37.7233C270.499 37.9078 270.077 38 269.524 38ZM275.058 23.2555C272.976 23.2555 271 23.2292 269.129 23.1765C267.284 23.1238 265.624 23.0842 264.148 23.0579C264.148 23.0579 264.016 23.0447 263.753 23.0184C263.515 22.9656 263.212 22.8734 262.843 22.7416C262.474 22.6099 262.145 22.3991 261.855 22.1092C261.592 21.8193 261.434 21.4372 261.381 20.9628C261.328 20.5148 261.381 20.1722 261.539 19.9351C261.723 19.6715 261.934 19.4739 262.171 19.3421C262.409 19.2104 262.619 19.1181 262.804 19.0654C263.015 18.9864 263.12 18.9468 263.12 18.9468C263.331 18.9205 263.713 18.8941 264.266 18.8678C264.846 18.8414 265.545 18.8282 266.362 18.8282C267.178 18.8019 268.061 18.7887 269.01 18.7887C269.959 18.7624 270.907 18.7492 271.856 18.7492C272.805 18.7228 273.701 18.7096 274.544 18.7096C274.544 18.7096 274.636 18.7228 274.821 18.7492C275.032 18.7755 275.282 18.8282 275.572 18.9073C275.862 18.9864 276.152 19.1181 276.442 19.3026C276.731 19.4871 276.969 19.7374 277.153 20.0536C277.364 20.3435 277.456 20.7125 277.43 21.1605C277.43 21.7139 277.298 22.1487 277.034 22.4649C276.797 22.7548 276.521 22.9525 276.204 23.0579C275.888 23.1633 275.611 23.2292 275.374 23.2555C275.163 23.2555 275.058 23.2555 275.058 23.2555Z" fill="black"/>
<defs>
<filter id="filter0_d_103_10" x="0.5" y="5.5" width="43.3164" height="41.6162" filterUnits="userSpaceOnUse" color-interpolation-filters="sRGB">
<feFlood flood-opacity="0" result="BackgroundImageFix"/>
<feColorMatrix in="SourceAlpha" type="matrix" values="0 0 0 0 0 0 0 0 0 0 0 0 0 0 0 0 0 0 127 0" result="hardAlpha"/>
<feOffset dx="-4" dy="2"/>
<feGaussianBlur stdDeviation="2"/>
<feComposite in2="hardAlpha" operator="out"/>
<feColorMatrix type="matrix" values="0 0 0 0 0 0 0 0 0 0 0 0 0 0 0 0 0 0 0.15 0"/>
<feBlend mode="normal" in2="BackgroundImageFix" result="effect1_dropShadow_103_10"/>
<feBlend mode="normal" in="SourceGraphic" in2="effect1_dropShadow_103_10" result="shape"/>
</filter>
<linearGradient id="paint0_linear_103_10" x1="0" y1="0" x2="48" y2="48" gradientUnits="userSpaceOnUse">
<stop stop-color="#3B4DFA"/>
<stop offset="1" stop-color="#4555E5"/>
</linearGradient>
<linearGradient id="paint1_linear_103_10" x1="17.0006" y1="25.6146" x2="40.5" y2="36.5" gradientUnits="userSpaceOnUse">
<stop stop-color="white"/>
<stop offset="1" stop-color="white" stop-opacity="0"/>
</linearGradient>
</defs>
</svg>
